<svg xmlns="http://www.w3.org/2000/svg" viewBox="0 0 1600 900" fill="none">
  <rect width="1600" height="900" rx="36" fill="#101012"/>
  <rect x="32" y="32" width="1536" height="836" rx="28" fill="url(#panel)"/>
  <circle cx="1320" cy="170" r="180" fill="url(#glow)" opacity="0.42"/>
  <circle cx="200" cy="760" r="240" fill="#F2E3D3" opacity="0.12"/>
  <path d="M220 220V430A250 250 0 0 0 720 430V220" stroke="#F5F5F5" stroke-width="28" stroke-linecap="round" stroke-linejoin="round"/>
  <path d="M300 395A92 92 0 0 1 470 335A92 92 0 0 0 640 395" stroke="#F5F5F5" stroke-width="28" stroke-linecap="round" stroke-linejoin="round"/>
  <path d="M820 250H1350" stroke="#8E8E93" stroke-width="2" opacity="0.38"/>
  <path d="M820 460H1430" stroke="#8E8E93" stroke-width="2" opacity="0.38"/>
  <rect x="820" y="290" width="238" height="120" rx="24" fill="#F7F7F5" fill-opacity="0.08" stroke="#F7F7F5" stroke-opacity="0.18"/>
  <rect x="1094" y="290" width="296" height="120" rx="24" fill="#F7F7F5" fill-opacity="0.08" stroke="#F7F7F5" stroke-opacity="0.18"/>
  <rect x="900" y="505" width="410" height="170" rx="30" fill="#F7F7F5" fill-opacity="0.05" stroke="#F7F7F5" stroke-opacity="0.14"/>
  <text x="820" y="142" fill="#F5F5F5" font-size="66" font-family="Inter, sans-serif" font-weight="700">BisQue Ultra</text>
  <text x="820" y="212" fill="#A1A1AA" font-size="30" font-family="Inter, sans-serif">Scientific release white paper</text>
  <text x="858" y="340" fill="#F5F5F5" font-size="28" font-family="Inter, sans-serif">Typed run artifacts</text>
  <text x="1126" y="340" fill="#F5F5F5" font-size="28" font-family="Inter, sans-serif">Stability-first agent runtime</text>
  <text x="948" y="568" fill="#F5F5F5" font-size="34" font-family="JetBrains Mono, monospace">upload -&gt; run -&gt; artifact</text>
  <text x="948" y="620" fill="#A1A1AA" font-size="26" font-family="Inter, sans-serif">Reliable scientific imaging workflows, designed to be inspected.</text>
  <defs>
    <linearGradient id="panel" x1="220" y1="80" x2="1340" y2="820" gradientUnits="userSpaceOnUse">
      <stop stop-color="#1A1A1D"/>
      <stop offset="1" stop-color="#111214"/>
    </linearGradient>
    <radialGradient id="glow" cx="0" cy="0" r="1" gradientUnits="userSpaceOnUse" gradientTransform="translate(1320 170) rotate(90) scale(180)">
      <stop stop-color="#DCE5F0"/>
      <stop offset="1" stop-color="#DCE5F0" stop-opacity="0"/>
    </radialGradient>
  </defs>
</svg>
